<svg width="24" height="24" viewBox="0 0 24 24" xmlns="http://www.w3.org/2000/svg" aria-hidden="true">
  <!-- 简约像素风 APL：3×5 点阵 / 字，2×2 方块，字间空 1 列，水平垂直居中 -->
  <g fill="currentColor">
    <!-- A -->
    <rect x="3" y="7" width="2" height="2"/>
    <rect x="1" y="9" width="2" height="2"/>
    <rect x="5" y="9" width="2" height="2"/>
    <rect x="1" y="11" width="2" height="2"/>
    <rect x="3" y="11" width="2" height="2"/>
    <rect x="5" y="11" width="2" height="2"/>
    <rect x="1" y="13" width="2" height="2"/>
    <rect x="5" y="13" width="2" height="2"/>
    <rect x="1" y="15" width="2" height="2"/>
    <rect x="5" y="15" width="2" height="2"/>
    <!-- P -->
    <rect x="9" y="7" width="2" height="2"/>
    <rect x="11" y="7" width="2" height="2"/>
    <rect x="13" y="7" width="2" height="2"/>
    <rect x="9" y="9" width="2" height="2"/>
    <rect x="13" y="9" width="2" height="2"/>
    <rect x="9" y="11" width="2" height="2"/>
    <rect x="11" y="11" width="2" height="2"/>
    <rect x="13" y="11" width="2" height="2"/>
    <rect x="9" y="13" width="2" height="2"/>
    <rect x="9" y="15" width="2" height="2"/>
    <!-- L -->
    <rect x="17" y="7" width="2" height="2"/>
    <rect x="17" y="9" width="2" height="2"/>
    <rect x="17" y="11" width="2" height="2"/>
    <rect x="17" y="13" width="2" height="2"/>
    <rect x="17" y="15" width="2" height="2"/>
    <rect x="19" y="15" width="2" height="2"/>
    <rect x="21" y="15" width="2" height="2"/>
  </g>
</svg>
